<svg width="183" height="42" viewBox="0 0 183 42" fill="none" xmlns="http://www.w3.org/2000/svg">
<g clip-path="url(#clip0_14_86)">
<path d="M39 10.5C39.326 10.5 39.5933 10.2602 39.6387 9.9208C40.087 6.8982 40.499 6.47737 43.4067 6.14707C43.742 6.10633 44 5.82583 44 5.50003C44 5.16967 43.7463 4.8982 43.4113 4.84843C40.5217 4.4457 40.164 4.09277 39.6387 1.07469C39.5797 0.739839 39.3217 0.5 39 0.5C38.6693 0.5 38.4067 0.739838 38.3523 1.07919C37.913 4.0973 37.501 4.51813 34.5977 4.84843C34.2537 4.8937 34 5.16517 34 5.50003C34 5.82583 34.2447 6.0973 34.5887 6.14707C37.4827 6.55883 37.836 6.90723 38.3523 9.92537C38.4203 10.2647 38.683 10.5 39 10.5Z" fill="#5552FA"/>
<path d="M45 23.3512C45 21.7926 45.3484 20.4004 46.0455 19.1747C46.7575 17.9338 47.7199 16.9729 48.9319 16.2919C50.1592 15.5958 51.5303 15.2478 53.0456 15.2478C54.8184 15.2478 56.3714 15.7018 57.7048 16.6097C59.0383 17.5177 59.9701 18.7736 60.5003 20.3777H56.8412C56.4775 19.6211 55.9623 19.0536 55.2957 18.6753C54.644 18.297 53.8866 18.1078 53.0229 18.1078C52.0985 18.1078 51.2729 18.3272 50.5456 18.7661C49.8336 19.1898 49.2728 19.7951 48.8637 20.582C48.4699 21.3689 48.2728 22.2919 48.2728 23.3512C48.2728 24.3953 48.4699 25.3184 48.8637 26.1204C49.2728 26.9073 49.8336 27.5202 50.5456 27.959C51.2729 28.3827 52.0985 28.5946 53.0229 28.5946C53.8866 28.5946 54.644 28.4054 55.2957 28.0271C55.9623 27.6337 56.4775 27.0586 56.8412 26.302H60.5003C59.9701 27.9212 59.0383 29.1847 57.7048 30.0927C56.3866 30.9855 54.8337 31.4319 53.0456 31.4319C51.5303 31.4319 50.1592 31.0914 48.9319 30.4105C47.7199 29.7144 46.7575 28.7535 46.0455 27.5277C45.3484 26.302 45 24.9098 45 23.3512ZM68.8092 31.5C67.5968 31.5 66.5059 31.2352 65.5364 30.7056C64.5666 30.1608 63.8013 29.3966 63.2409 28.413C62.6954 27.4294 62.4227 26.2945 62.4227 25.0082C62.4227 23.7219 62.7029 22.587 63.2636 21.6034C63.8393 20.6198 64.6195 19.8632 65.6046 19.3335C66.5894 18.7888 67.6877 18.5164 68.9001 18.5164C70.1122 18.5164 71.2106 18.7888 72.1957 19.3335C73.1804 19.8632 73.9532 20.6198 74.5139 21.6034C75.0895 22.587 75.3775 23.7219 75.3775 25.0082C75.3775 26.2945 75.0821 27.4294 74.4912 28.413C73.9152 29.3966 73.1275 30.1608 72.1275 30.7056C71.1424 31.2352 70.0365 31.5 68.8092 31.5ZM68.8092 28.7308C69.3849 28.7308 69.9229 28.5946 70.4229 28.3222C70.9378 28.0347 71.3469 27.611 71.6502 27.0511C71.9531 26.4912 72.1047 25.8102 72.1047 25.0082C72.1047 23.8127 71.7866 22.8972 71.1502 22.2617C70.5287 21.611 69.7638 21.2856 68.8547 21.2856C67.9456 21.2856 67.1803 21.611 66.5592 22.2617C65.953 22.8972 65.6501 23.8127 65.6501 25.0082C65.6501 26.2037 65.9455 27.1267 66.5364 27.7774C67.1423 28.413 67.9001 28.7308 68.8092 28.7308ZM76.8932 24.9628C76.8932 23.6917 77.1432 22.5643 77.6432 21.5807C78.1585 20.5971 78.8556 19.8405 79.7341 19.3108C80.6131 18.7812 81.5904 18.5164 82.666 18.5164C83.4842 18.5164 84.2648 18.698 85.007 19.0612C85.7495 19.4092 86.3405 19.8783 86.7798 20.4685V14.4987H90.0071V31.2957H86.7798V29.4344C86.3859 30.0548 85.833 30.5542 85.1206 30.9325C84.4086 31.3109 83.5829 31.5 82.6433 31.5C81.5829 31.5 80.6131 31.2276 79.7341 30.6829C78.8556 30.1381 78.1585 29.3739 77.6432 28.3903C77.1432 27.3916 76.8932 26.2491 76.8932 24.9628ZM86.8025 25.0082C86.8025 24.2364 86.6512 23.5782 86.3479 23.0334C86.045 22.4735 85.6359 22.0498 85.1206 21.7623C84.6057 21.4597 84.0524 21.3083 83.4615 21.3083C82.8706 21.3083 82.3251 21.4521 81.8251 21.7396C81.3251 22.0271 80.916 22.4508 80.5978 23.0107C80.2949 23.5555 80.1433 24.2062 80.1433 24.9628C80.1433 25.7194 80.2949 26.3853 80.5978 26.9603C80.916 27.5202 81.3251 27.9515 81.8251 28.2541C82.3404 28.5567 82.8858 28.7081 83.4615 28.7081C84.0524 28.7081 84.6057 28.5643 85.1206 28.2768C85.6359 27.9742 86.045 27.5504 86.3479 27.0057C86.6512 26.4458 86.8025 25.78 86.8025 25.0082ZM104.82 24.7358C104.82 25.1898 104.789 25.5984 104.729 25.9615H95.5242C95.5998 26.8695 95.918 27.5807 96.4788 28.0952C97.0392 28.6097 97.7288 28.867 98.547 28.867C99.7288 28.867 100.57 28.36 101.07 27.3462H104.502C104.138 28.5567 103.441 29.5555 102.411 30.3424C101.38 31.1141 100.115 31.5 98.6152 31.5C97.4028 31.5 96.3119 31.2352 95.3424 30.7056C94.3878 30.1608 93.6378 29.3966 93.0923 28.413C92.5618 27.4294 92.2968 26.2945 92.2968 25.0082C92.2968 23.7068 92.5618 22.5643 93.0923 21.5807C93.6225 20.5971 94.3651 19.8405 95.3196 19.3108C96.2742 18.7812 97.3726 18.5164 98.6152 18.5164C99.8119 18.5164 100.88 18.7736 101.82 19.2881C102.774 19.8027 103.509 20.5366 104.024 21.4899C104.555 22.4281 104.82 23.5101 104.82 24.7358ZM101.524 23.8279C101.509 23.0107 101.214 22.36 100.638 21.8758C100.062 21.3764 99.3574 21.1267 98.5243 21.1267C97.7362 21.1267 97.0697 21.3689 96.5242 21.8531C95.9937 22.3222 95.668 22.9805 95.5469 23.8279H101.524ZM110.051 28.6854H115.665V31.2957H106.438V28.7308L111.938 21.331H106.46V18.7207H115.597V21.2856L110.051 28.6854ZM117.311 24.9628C117.311 23.6917 117.561 22.5643 118.061 21.5807C118.576 20.5971 119.265 19.8405 120.129 19.3108C121.007 18.7812 121.985 18.5164 123.061 18.5164C124 18.5164 124.818 18.7055 125.515 19.0839C126.227 19.4622 126.796 19.9389 127.22 20.5139V18.7207H130.425V31.2957H127.22V29.4571C126.811 30.0473 126.243 30.5391 125.515 30.9325C124.803 31.3109 123.977 31.5 123.038 31.5C121.977 31.5 121.007 31.2276 120.129 30.6829C119.265 30.1381 118.576 29.3739 118.061 28.3903C117.561 27.3916 117.311 26.2491 117.311 24.9628ZM127.22 25.0082C127.22 24.2364 127.068 23.5782 126.765 23.0334C126.462 22.4735 126.053 22.0498 125.538 21.7623C125.023 21.4597 124.47 21.3083 123.879 21.3083C123.288 21.3083 122.743 21.4521 122.243 21.7396C121.743 22.0271 121.333 22.4508 121.015 23.0107C120.712 23.5555 120.561 24.2062 120.561 24.9628C120.561 25.7194 120.712 26.3853 121.015 26.9603C121.333 27.5202 121.743 27.9515 122.243 28.2541C122.757 28.5567 123.303 28.7081 123.879 28.7081C124.47 28.7081 125.023 28.5643 125.538 28.2768C126.053 27.9742 126.462 27.5504 126.765 27.0057C127.068 26.4458 127.22 25.78 127.22 25.0082ZM136.714 20.6728C137.123 20.0069 137.653 19.4849 138.305 19.1066C138.972 18.7282 139.729 18.5391 140.578 18.5391V21.8758H139.737C138.737 21.8758 137.979 22.1103 137.464 22.5794C136.964 23.0486 136.714 23.8657 136.714 25.0309V31.2957H133.532V18.7207H136.714V20.6728ZM141.903 24.9628C141.903 23.6917 142.153 22.5643 142.653 21.5807C143.168 20.5971 143.865 19.8405 144.744 19.3108C145.623 18.7812 146.6 18.5164 147.676 18.5164C148.494 18.5164 149.274 18.698 150.017 19.0612C150.759 19.4092 151.35 19.8783 151.789 20.4685V14.4987H155.017V31.2957H151.789V29.4344C151.396 30.0548 150.842 30.5542 150.13 30.9325C149.418 31.3109 148.592 31.5 147.653 31.5C146.592 31.5 145.623 31.2276 144.744 30.6829C143.865 30.1381 143.168 29.3739 142.653 28.3903C142.153 27.3916 141.903 26.2491 141.903 24.9628ZM151.812 25.0082C151.812 24.2364 151.66 23.5782 151.358 23.0334C151.055 22.4735 150.645 22.0498 150.13 21.7623C149.615 21.4597 149.062 21.3083 148.471 21.3083C147.88 21.3083 147.335 21.4521 146.835 21.7396C146.335 22.0271 145.926 22.4508 145.607 23.0107C145.304 23.5555 145.153 24.2062 145.153 24.9628C145.153 25.7194 145.304 26.3853 145.607 26.9603C145.926 27.5202 146.335 27.9515 146.835 28.2541C147.35 28.5567 147.895 28.7081 148.471 28.7081C149.062 28.7081 149.615 28.5643 150.13 28.2768C150.645 27.9742 151.055 27.5504 151.358 27.0057C151.66 26.4458 151.812 25.78 151.812 25.0082ZM159.533 31.4546C158.958 31.4546 158.48 31.2806 158.102 30.9325C157.738 30.5694 157.556 30.1229 157.556 29.5933C157.556 29.0637 157.738 28.6248 158.102 28.2768C158.48 27.9136 158.958 27.732 159.533 27.732C160.094 27.732 160.556 27.9136 160.92 28.2768C161.283 28.6248 161.465 29.0637 161.465 29.5933C161.465 30.1229 161.283 30.5694 160.92 30.9325C160.556 31.2806 160.094 31.4546 159.533 31.4546ZM163.21 24.9628C163.21 23.6917 163.46 22.5643 163.96 21.5807C164.475 20.5971 165.164 19.8405 166.028 19.3108C166.907 18.7812 167.884 18.5164 168.96 18.5164C169.9 18.5164 170.718 18.7055 171.415 19.0839C172.127 19.4622 172.695 19.9389 173.119 20.5139V18.7207H176.324V31.2957H173.119V29.4571C172.71 30.0473 172.142 30.5391 171.415 30.9325C170.703 31.3109 169.877 31.5 168.937 31.5C167.877 31.5 166.907 31.2276 166.028 30.6829C165.164 30.1381 164.475 29.3739 163.96 28.3903C163.46 27.3916 163.21 26.2491 163.21 24.9628ZM173.119 25.0082C173.119 24.2364 172.968 23.5782 172.665 23.0334C172.362 22.4735 171.953 22.0498 171.437 21.7623C170.922 21.4597 170.369 21.3083 169.778 21.3083C169.187 21.3083 168.642 21.4521 168.142 21.7396C167.642 22.0271 167.233 22.4508 166.915 23.0107C166.612 23.5555 166.46 24.2062 166.46 24.9628C166.46 25.7194 166.612 26.3853 166.915 26.9603C167.233 27.5202 167.642 27.9515 168.142 28.2541C168.657 28.5567 169.203 28.7081 169.778 28.7081C170.369 28.7081 170.922 28.5643 171.437 28.2768C171.953 27.9742 172.362 27.5504 172.665 27.0057C172.968 26.4458 173.119 25.78 173.119 25.0082ZM181.045 17.2226C180.485 17.2226 180.015 17.0485 179.636 16.7005C179.273 16.3373 179.091 15.8909 179.091 15.3613C179.091 14.8317 179.273 14.3928 179.636 14.0448C180.015 13.6816 180.485 13.5 181.045 13.5C181.606 13.5 182.068 13.6816 182.432 14.0448C182.81 14.3928 183 14.8317 183 15.3613C183 15.8909 182.81 16.3373 182.432 16.7005C182.068 17.0485 181.606 17.2226 181.045 17.2226ZM182.614 18.7207V31.2957H179.432V18.7207H182.614Z" fill="white"/>
<path d="M16.3312 41.5L11.6781 38.8975L19.9095 25.5177L23.6762 27.6277L16.3312 41.5ZM5.70675 8.56666L13.2059 22.3875L9.54102 24.5468L1.11719 11.2909L5.70675 8.56666ZM11.2717 16.3726L18.5655 2.5L23.1678 5.15206L14.9365 18.5319L11.2717 16.3726ZM33.8309 32.6044L29.1508 35.3522L21.5876 21.6111L25.3047 19.4003L33.8309 32.6044ZM0 25.4438L15.6682 25.9062L15.7686 30.1746L0 30.8425V25.4438ZM34.9495 13.1565L35 18.5051L19.1785 18.1443V13.8245L34.9495 13.1565Z" fill="#5552FA"/>
</g>
<defs>
<clipPath id="clip0_14_86">
<rect width="183" height="42" fill="white"/>
</clipPath>
</defs>
</svg>
