<svg width="14" height="13" viewBox="0 0 14 13" fill="none" xmlns="http://www.w3.org/2000/svg">
<path d="M7.35463 12.1951C7.78791 12.1951 8.14317 11.9027 8.20351 11.4888C8.79933 7.80268 9.34691 7.28948 13.2115 6.88667C13.6571 6.83699 14 6.49492 14 6.0976C14 5.69472 13.6628 5.36366 13.2176 5.30296C9.37709 4.81183 8.90167 4.38143 8.20351 0.700842C8.12509 0.292487 7.7822 0 7.35463 0C6.91511 0 6.56609 0.292485 6.49379 0.706329C5.90993 4.38695 5.36235 4.90016 1.50364 5.30296C1.04644 5.35817 0.709259 5.68923 0.709259 6.0976C0.709259 6.49492 1.03448 6.82598 1.49168 6.88667C5.33803 7.38882 5.80759 7.8137 6.49379 11.4944C6.58417 11.9082 6.93332 12.1951 7.35463 12.1951Z" fill="white"/>
</svg>
