<svg width="50" height="50" viewBox="0 0 50 50" fill="none" xmlns="http://www.w3.org/2000/svg">
<path d="M43.3546 12.1951C43.7879 12.1951 44.1432 11.9027 44.2035 11.4888C44.7993 7.80268 45.3469 7.28948 49.2115 6.88667C49.6571 6.83699 50 6.49492 50 6.0976C50 5.69472 49.6628 5.36366 49.2176 5.30296C45.3771 4.81183 44.9017 4.38143 44.2035 0.700842C44.1251 0.292487 43.7822 0 43.3546 0C42.9151 0 42.5661 0.292485 42.4938 0.706329C41.9099 4.38695 41.3623 4.90016 37.5036 5.30296C37.0464 5.35817 36.7093 5.68923 36.7093 6.0976C36.7093 6.49492 37.0345 6.82598 37.4917 6.88667C41.338 7.38882 41.8076 7.8137 42.4938 11.4944C42.5842 11.9082 42.9333 12.1951 43.3546 12.1951Z" fill="white"/>
<path d="M21.7054 50L15.5211 46.8262L26.4612 30.5094L31.4674 33.0826L21.7054 50ZM7.58469 9.83738L17.5516 26.6921L12.6807 29.3254L1.48483 13.1596L7.58469 9.83738ZM14.9809 19.3568L24.6749 2.43901L30.7917 5.67323L19.8517 21.9901L14.9809 19.3568ZM44.9638 39.1517L38.7436 42.5027L28.6915 25.7452L33.6318 23.0491L44.9638 39.1517ZM0 30.4193L20.8242 30.9832L20.9576 36.1885L0 37.003V30.4193ZM46.4505 15.4347L46.5176 21.9574L25.4896 21.5174V16.2494L46.4505 15.4347Z" fill="white"/>
</svg>
