<svg width="50" height="51" viewBox="0 0 50 51" fill="none" xmlns="http://www.w3.org/2000/svg">
<path d="M22.2054 50.561L16.0211 47.3872L26.9612 31.0704L31.9674 33.6435L22.2054 50.561ZM8.08469 10.3984L18.0516 27.2531L13.1807 29.8863L1.98483 13.7206L8.08469 10.3984ZM15.4809 19.9178L25.1749 3L31.2917 6.23422L20.3517 22.5511L15.4809 19.9178ZM45.4638 39.7127L39.2436 43.0637L29.1915 26.3062L34.1318 23.6101L45.4638 39.7127ZM0.5 30.9802L21.3242 31.5442L21.4576 36.7495L0.5 37.564V30.9802ZM46.9505 15.9957L47.0176 22.5184L25.9896 22.0784V16.8104L46.9505 15.9957Z" fill="white"/>
</svg>
