<svg width="50" height="51" viewBox="0 0 50 51" fill="none" xmlns="http://www.w3.org/2000/svg">
<path d="M43.3546 12.1951C43.7879 12.1951 44.1432 11.9027 44.2035 11.4888C44.7993 7.80268 45.3469 7.28948 49.2115 6.88667C49.6571 6.83699 50 6.49492 50 6.0976C50 5.69472 49.6628 5.36366 49.2176 5.30296C45.3771 4.81183 44.9017 4.38143 44.2035 0.700842C44.1251 0.292487 43.7822 0 43.3546 0C42.9151 0 42.5661 0.292485 42.4938 0.706329C41.9099 4.38695 41.3623 4.90016 37.5036 5.30296C37.0464 5.35817 36.7093 5.68923 36.7093 6.0976C36.7093 6.49492 37.0345 6.82598 37.4917 6.88667C41.338 7.38882 41.8076 7.8137 42.4938 11.4944C42.5842 11.9082 42.9333 12.1951 43.3546 12.1951Z" fill="white"/>
<path d="M22.2054 50.561L16.0211 47.3872L26.9612 31.0704L31.9674 33.6435L22.2054 50.561ZM8.08469 10.3984L18.0516 27.2531L13.1807 29.8863L1.98483 13.7206L8.08469 10.3984ZM15.4809 19.9178L25.1749 3L31.2917 6.23422L20.3517 22.5511L15.4809 19.9178ZM45.4638 39.7127L39.2436 43.0637L29.1915 26.3062L34.1318 23.6101L45.4638 39.7127ZM0.5 30.9802L21.3242 31.5442L21.4576 36.7495L0.5 37.564V30.9802ZM46.9505 15.9957L47.0176 22.5184L25.9896 22.0784V16.8104L46.9505 15.9957Z" fill="white"/>
</svg>
