<svg width="55" height="58" viewBox="0 0 55 58" fill="none" xmlns="http://www.w3.org/2000/svg">
<path d="M48.1454 12.6951C48.5787 12.6951 48.9339 12.4027 48.9943 11.9888C49.5901 8.30268 50.1377 7.78948 54.0022 7.38667C54.4478 7.33699 54.7907 6.99492 54.7907 6.5976C54.7907 6.19472 54.4536 5.86366 54.0083 5.80296C50.1678 5.31183 49.6924 4.88143 48.9943 1.20084C48.9158 0.792487 48.5729 0.5 48.1454 0.5C47.7058 0.5 47.3568 0.792485 47.2845 1.20633C46.7007 4.88695 46.1531 5.40016 42.2944 5.80296C41.8372 5.85817 41.5 6.18923 41.5 6.5976C41.5 6.99492 41.8252 7.32598 42.2824 7.38667C46.1288 7.88882 46.5983 8.3137 47.2845 11.9944C47.3749 12.4082 47.7241 12.6951 48.1454 12.6951Z" fill="white"/>
<path d="M22.2054 57.5611L16.0211 54.3873L26.9612 38.0704L31.9674 40.6436L22.2054 57.5611ZM8.08469 17.3984L18.0516 34.2531L13.1807 36.8864L1.98483 20.7207L8.08469 17.3984ZM15.4809 26.9179L25.1749 10.0001L31.2917 13.2343L20.3517 29.5512L15.4809 26.9179ZM45.4638 46.7128L39.2436 50.0637L29.1915 33.3063L34.1318 30.6102L45.4638 46.7128ZM0.5 37.9803L21.3242 38.5442L21.4576 43.7496L0.5 44.5641V37.9803ZM46.9505 22.9958L47.0176 29.5185L25.9896 29.0785V23.8104L46.9505 22.9958Z" fill="white"/>
</svg>
